<?xml version="1.0" encoding="UTF-8" standalone="no"?>
<svg
   viewBox="0 0 926.44897 986.92743"
   height="986.92743"
   width="926.44897"
   id="svg2"
   version="1.1"
   sodipodi:docname="PayPal 2024 (Stacked alt).svg"
   inkscape:version="1.2.2 (b0a8486541, 2022-12-01)"
   xmlns:inkscape="http://www.inkscape.org/namespaces/inkscape"
   xmlns:sodipodi="http://sodipodi.sourceforge.net/DTD/sodipodi-0.dtd"
   xmlns="http://www.w3.org/2000/svg"
   xmlns:svg="http://www.w3.org/2000/svg"
   xmlns:rdf="http://www.w3.org/1999/02/22-rdf-syntax-ns#"
   xmlns:cc="http://creativecommons.org/ns#"
   xmlns:dc="http://purl.org/dc/elements/1.1/">
  <sodipodi:namedview
     id="namedview15"
     pagecolor="#ffffff"
     bordercolor="#000000"
     borderopacity="0.25"
     inkscape:showpageshadow="2"
     inkscape:pageopacity="0.0"
     inkscape:pagecheckerboard="0"
     inkscape:deskcolor="#d1d1d1"
     showgrid="false"
     showguides="true"
     inkscape:zoom="0.22743067"
     inkscape:cx="329.77083"
     inkscape:cy="525.43485"
     inkscape:window-width="1187"
     inkscape:window-height="582"
     inkscape:window-x="0"
     inkscape:window-y="0"
     inkscape:window-maximized="1"
     inkscape:current-layer="svg2">
    <sodipodi:guide
       position="444.28853,990.46503"
       orientation="0,-1"
       id="guide555"
       inkscape:locked="false" />
  </sodipodi:namedview>
  <metadata
     id="metadata8">
    <rdf:RDF>
      <cc:Work
         rdf:about="">
        <dc:format>image/svg+xml</dc:format>
        <dc:type
           rdf:resource="http://purl.org/dc/dcmitype/StillImage" />
      </cc:Work>
    </rdf:RDF>
  </metadata>
  <defs
     id="defs6" />
  <g
     id="g836"
     transform="scale(0.9265382,0.94389177)">
    <g
       id="g247"
       transform="matrix(1.5170512,0,0,1.4391393,259.42932,0)">
      <g
         id="Layer_1">
        <g
           id="g244">
          <path
             class="cls-3"
             d="m 318.58,103.5 c 0,55.74 -51.44,121.5 -129.27,121.5 H 114.34 L 110.66,248.22 93.17,360 H 0 L 56.05,0 H 207 c 50.83,0 90.82,28.33 105.55,67.7 4.2482,11.4467 6.2941,23.5933 6.03,35.8 z"
             id="path238"
             style="fill:#002991" />
          <path
             class="cls-2"
             d="M 372.28,207 C 362.0087,269.4081 307.9876,315.1528 244.74,315 H 192.68 L 171.01,450 H 78.34 l 14.83,-90 17.5,-111.78 3.67,-23.22 h 74.97 c 77.73,0 129.27,-65.76 129.27,-121.5 38.25,19.74 60.55,59.63 53.7,103.5 z"
             id="path240"
             style="fill:#60cdff" />
          <path
             class="cls-1"
             d="M 318.58,103.5 C 302.54,95.11 283.09,90 261.92,90 h -126.4 l -21.18,135 h 74.97 c 77.73,0 129.27,-65.76 129.27,-121.5 z"
             id="path242"
             style="fill:#008cff" />
        </g>
      </g>
    </g>
    <g
       id="g602"
       transform="matrix(0.76328539,0,0,0.75090705,0,715.49534)">
      <g
         id="Layer_1-3">
        <path
           d="m 1309.9993,0 v 328.2999 h -74.7 V 0 Z m -102.1999,110.7999 v 218.0999 h -66.4 v -18.8 c -8.4,8.2 -18,14.4 -28.6,18.8 -10.7,4.6 -22.3,7 -34.7,7 -15.6,0 -30.1,-2.9 -43.3999,-8.7 -13.3,-6.1 -24.9,-14.4 -34.7,-24.8 -9.9,-10.5 -17.7,-22.7 -23.5,-36.6 -5.5,-14.2 -8.2,-29.5 -8.2,-45.8 0,-16.3 2.7,-31.4 8.2,-45.3 5.8,-14.2 13.6,-26.6 23.5,-37.1 9.7768,-10.4201 21.5868,-18.7245 34.7,-24.4 13.3,-6.1 27.8,-9.2 43.3999,-9.2 12.4,0 24,2.3 34.7,7 10.7,4.4 20.3,10.6 28.6,18.8 v -18.8 h 66.4 v -0.2 z m -117.7,158.7 c 13.6,0 24.7,-4.6 33.3999,-14 9,-9.3 13.5,-21.2 13.5,-35.7 0,-14.5 -4.5,-26.5 -13.5,-35.7 -8.7,-9.3 -19.9,-14 -33.3999,-14 -13.4999,0 -24.9,4.6 -33.9,14 -8.7,9.3 -13,21.2 -13,35.7 0,14.5 4.4,26.5 13,35.7 9,9.3 20.3,14 33.9,14 z M 861.6996,0 c 19.7,0 36.5,2.8 50.4,8.3 13.9,5.5 25.6,13.2 35.1999,23.1 9.8,10.2 17.5,21.8 23,34.9 5.5,13.1 8.2,27.2 8.2,42.3 0,15.1 -2.7,29.2 -8.2,42.3 -5.3982,12.9791 -13.202,24.8205 -23,34.9 -9.5,9.9 -21.3,17.6 -35.1999,23.1 -13.8999,5.5 -30.7,8.3 -50.4,8.3 h -36 V 328.8 H 749.6997 V 0 Z m -10.9,149.5999 c 10.2,0 17.9,-1 23.5,-3.1 5.8,-2.3 10.6,-5.3 14.3,-8.7 7.8,-7.3 11.7,-17 11.7,-29.2 0,-12.2 -3.9,-21.9 -11.7,-29.2 -3.8,-3.5 -8.5,-6.3 -14.3,-8.3 -5.5,-2.3 -13.3,-3.5 -23.5,-3.5 h -25.2 v 82 z m -381.0998,-38.8 h 82.5 l 56,104.6 h 0.9 l 49.9,-104.6 h 76.4 L 571.6999,439.5997 H 495.7 L 570.4,289.1998 469.7001,110.7999 Z m -14.7,0 v 218.0999 h -66.4 v -18.8 c -8.4,8.2 -18,14.4 -28.6,18.8 -10.7,4.6 -22.3,7 -34.7,7 -15.6,0 -30.1,-2.9 -43.4,-8.7 -13.3,-6.1 -24.9,-14.4 -34.7,-24.8 -9.8,-10.5 -17.7,-22.7 -23.5,-36.6 -5.5,-14.2 -8.2,-29.5 -8.2,-45.8 0,-16.3 2.7,-31.4 8.2,-45.3 5.8,-14.2 13.6,-26.6 23.5,-37.1 9.758,-10.4418 21.5728,-18.7496 34.7,-24.4 13.3,-6.1 27.8,-9.2 43.4,-9.2 12.4,0 24,2.3 34.7,7 10.7,4.4 20.3,10.6 28.6,18.8 v -18.8 h 66.4 v -0.2 z m -117.7,158.7 c 13.6,0 24.7,-4.6 33.5,-14 9,-9.3 13.5,-21.2 13.5,-35.7 0,-14.5 -4.5,-26.5 -13.5,-35.7 -8.7,-9.3 -19.9,-14 -33.5,-14 -13.6,0 -24.9,4.6 -33.9,14 -8.7,9.3 -13,21.2 -13,35.7 0,14.5 4.4,26.5 13,35.7 9,9.3 20.3,14 33.9,14 z M 111.9999,0 c 19.7,0 36.5,2.8 50.4,8.3 13.9,5.5 25.6,13.2 35.2,23.1 9.8,10.2 17.5,21.8 23,34.9 5.5,13.1 8.2,27.2 8.2,42.3 0,15.1 -2.7,29.2 -8.2,42.3 -5.3982,12.9791 -13.2019,24.8205 -23,34.9 -9.5,9.9 -21.3,17.6 -35.2,23.1 -13.9,5.5 -30.7,8.3 -50.4,8.3 h -36 V 328.8 H 0 V 0 Z m -10.8,149.5999 c 10.2,0 17.9,-1 23.5,-3.1 5.8,-2.3 10.6,-5.3 14.3,-8.7 7.8,-7.3 11.7,-17 11.7,-29.2 0,-12.2 -3.9,-21.9 -11.7,-29.2 -3.8,-3.5 -8.5,-6.3 -14.3,-8.3 -5.5,-2.3 -13.3,-3.5 -23.5,-3.5 h -25.2 v 82 c 0,0 25.2,0 25.2,0 z"
           id="path599" />
      </g>
    </g>
  </g>
</svg>
